<svg width="16" height="16" class="h-full w-full" viewBox="0 0 40 40" fill="none" xmlns="http://www.w3.org/2000/svg"><rect width="40" height="40" rx="10" fill="#5865F2"></rect><mask id="mask0_4221_8593" maskUnits="userSpaceOnUse" x="8" y="8" width="24" height="24" style="mask-type: luminance;"><path d="M32 8H8V32H32V8Z" fill="white"></path></mask><g mask="url(#mask0_4221_8593)"><path d="M28.3303 12.2278C26.7768 11.5009 25.1155 10.9727 23.3789 10.6719C23.1656 11.0575 22.9164 11.5761 22.7446 11.9887C20.8985 11.7111 19.0693 11.7111 17.2572 11.9887C17.0854 11.5761 16.8306 11.0575 16.6154 10.6719C14.8768 10.9727 13.2138 11.5029 11.6602 12.2316C8.52664 16.9669 7.67719 21.5844 8.10192 26.1365C10.1803 27.6885 12.1944 28.6314 14.1746 29.2483C14.6635 28.5755 15.0995 27.8601 15.4752 27.1063C14.7598 26.8345 14.0745 26.4989 13.4271 26.1095C13.5988 25.9822 13.7669 25.8492 13.9292 25.7123C17.8782 27.5593 22.1689 27.5593 26.0707 25.7123C26.2349 25.8492 26.4029 25.9822 26.5729 26.1095C25.9235 26.5009 25.2364 26.8363 24.5209 27.1082C24.8966 27.8601 25.3308 28.5773 25.8216 29.2502C27.8037 28.6332 29.8197 27.6904 31.8979 26.1365C32.3963 20.8595 31.0466 16.2843 28.3303 12.2278ZM16.0132 23.337C14.8277 23.337 13.8555 22.2303 13.8555 20.8826C13.8555 19.535 14.807 18.4264 16.0132 18.4264C17.2194 18.4264 18.1916 19.533 18.1708 20.8826C18.1727 22.2303 17.2194 23.337 16.0132 23.337ZM23.9867 23.337C22.8012 23.337 21.8291 22.2303 21.8291 20.8826C21.8291 19.535 22.7805 18.4264 23.9867 18.4264C25.1929 18.4264 26.1652 19.533 26.1444 20.8826C26.1444 22.2303 25.1929 23.337 23.9867 23.337Z" fill="white"></path></g></svg>