<svg width="16" height="16" class="h-full w-full" viewBox="0 0 40 40" fill="none" xmlns="http://www.w3.org/2000/svg"><rect width="40" height="40" rx="10" fill="white"></rect><path d="M25.1862 16.645C26.7326 17.7499 28.6269 18.3999 30.673 18.3999V14.4648C30.2857 14.4649 29.8996 14.4246 29.5207 14.3443V17.4418C27.4749 17.4418 25.5807 16.7917 24.034 15.687V23.7174C24.034 27.7346 20.7758 30.991 16.7568 30.991C15.2572 30.991 13.8634 30.5378 12.7056 29.7608C14.027 31.1112 15.8699 31.949 17.9088 31.949C21.9281 31.949 25.1864 28.6926 25.1864 24.6752L25.1862 16.645ZM26.6076 12.675C25.8175 11.8121 25.2985 10.6969 25.1862 9.46402V8.95789H24.0944C24.3692 10.5249 25.3067 11.8636 26.6076 12.675ZM15.2476 26.6781C14.8061 26.0995 14.5675 25.3916 14.5685 24.6637C14.5685 22.8264 16.0588 21.3367 17.8975 21.3367C18.2401 21.3366 18.5807 21.3891 18.9073 21.4926V17.4696C18.5256 17.4173 18.1405 17.3951 17.7555 17.4032V20.5346C17.4287 20.431 17.0879 20.3784 16.7452 20.3788C14.9066 20.3788 13.4164 21.8683 13.4164 23.7059C13.4164 25.0051 14.1613 26.13 15.2476 26.6781Z" fill="#FF004F"></path><path d="M24.034 15.6869C25.5808 16.7917 27.4748 17.4417 29.5207 17.4417V14.3443C28.3787 14.1011 27.3678 13.5046 26.6077 12.675C25.3066 11.8635 24.3691 10.5248 24.0943 8.95789H21.2261V24.6751C21.2196 26.5075 19.7319 27.991 17.8972 27.991C16.816 27.991 15.8555 27.476 15.2472 26.6781C14.161 26.13 13.4161 25.0051 13.4161 23.706C13.4161 21.8686 14.9063 20.3788 16.7449 20.3788C17.0972 20.3788 17.4367 20.4337 17.7552 20.5347V17.4033C13.8068 17.4849 10.6313 20.7094 10.6313 24.6752C10.6313 26.6549 11.4221 28.4495 12.7055 29.7608C13.8634 30.5378 15.2572 30.991 16.7568 30.991C20.7759 30.991 24.034 27.7346 24.034 23.7174L24.034 15.6869Z" fill="black"></path><path d="M29.521 14.3443V13.5068C28.4911 13.5083 27.4816 13.2201 26.6079 12.675C27.3814 13.5213 28.3997 14.1049 29.521 14.3443ZM24.0946 8.95795C24.0684 8.80819 24.0482 8.65745 24.0343 8.50614V8H20.0741V23.7174C20.0678 25.5494 18.5801 27.0332 16.7452 27.0332C16.2066 27.0332 15.698 26.9053 15.2475 26.6782C15.8558 27.476 16.8163 27.991 17.8975 27.991C19.732 27.991 21.22 26.5076 21.2264 24.6752V8.95795H24.0946ZM17.7557 17.4034V16.5118C17.4248 16.4666 17.0912 16.4439 16.7572 16.4441C12.7377 16.444 9.47949 19.7005 9.47949 23.7174C9.47949 26.2357 10.76 28.4552 12.7059 29.7608C11.4225 28.4495 10.6317 26.6547 10.6317 24.6751C10.6317 20.7095 13.8071 17.4849 17.7557 17.4034Z" fill="#00F2EA"></path></svg>